<?xml version="1.0" standalone="no"?>
<!DOCTYPE svg PUBLIC "-//W3C//DTD SVG 20010904//EN"
 "http://www.w3.org/TR/2001/REC-SVG-20010904/DTD/svg10.dtd">
<svg version="1.0" xmlns="http://www.w3.org/2000/svg"
 width="300.000000pt" height="300.000000pt" viewBox="0 0 300.000000 300.000000"
 preserveAspectRatio="xMidYMid meet">
<metadata>
Created by potrace 1.14, written by Peter Selinger 2001-2017
</metadata>
<g transform="translate(0.000000,300.000000) scale(0.100000,-0.100000)"
fill="#000000" stroke="none">
<path d="M2760 2654 c0 -3 7 -12 15 -20 8 -8 12 -21 9 -29 -4 -8 -1 -15 5 -15
19 0 34 -40 20 -56 -7 -8 -7 -14 -1 -14 5 0 18 -17 27 -37 10 -21 22 -40 26
-43 5 -3 10 -15 12 -25 2 -11 9 -31 16 -43 7 -13 10 -26 7 -29 -7 -8 25 -32
43 -33 7 0 24 11 37 26 21 22 24 35 24 109 l0 84 -57 38 c-101 67 -183 106
-183 87z"/>
<path d="M155 2556 c-9 -14 -25 -28 -35 -31 -27 -9 -34 -40 -14 -70 17 -26 47
-35 42 -12 -4 20 34 87 50 87 20 0 11 44 -10 48 -9 2 -24 -8 -33 -22z"/>
<path d="M1480 1806 c-17 -36 -35 -66 -41 -66 -5 0 -9 -6 -9 -12 0 -15 -63
-58 -84 -58 -8 0 -18 -5 -21 -11 -7 -10 34 -8 125 8 45 8 70 8 95 1 11 -4 46
-9 77 -13 34 -4 65 -14 79 -26 12 -10 30 -19 39 -19 9 0 38 -11 64 -25 27 -14
79 -30 119 -35 40 -6 95 -19 122 -30 28 -10 87 -29 132 -40 l83 -20 37 23 c83
52 147 71 241 70 34 0 51 4 49 11 -6 18 -68 29 -182 30 -120 2 -165 10 -165
32 0 8 -7 17 -15 20 -8 4 -15 12 -15 20 0 8 -4 22 -9 32 -4 9 -16 34 -26 55
-24 49 -48 48 -81 -5 -15 -24 -52 -72 -83 -107 l-55 -63 -46 5 c-25 3 -63 14
-85 25 -185 90 -205 102 -205 118 0 8 -4 14 -8 14 -22 0 -72 65 -72 94 0 7 -6
19 -14 25 -12 10 -20 1 -46 -53z"/>
<path d="M872 1748 c-7 -7 -12 -20 -12 -30 0 -48 -75 -145 -115 -150 -11 -1
-45 1 -76 6 -32 4 -72 4 -90 0 l-34 -8 47 -7 c25 -4 84 -23 130 -43 46 -20 95
-36 108 -36 25 0 107 24 185 54 22 8 57 15 78 16 34 0 104 26 95 35 -2 2 -25
-1 -51 -7 -66 -14 -90 -5 -122 44 -16 24 -41 54 -56 68 -15 14 -30 35 -34 48
-7 24 -34 29 -53 10z m24 -135 c-10 -10 -19 5 -10 18 6 11 8 11 12 0 2 -7 1
-15 -2 -18z"/>
<path d="M1275 1630 c-3 -5 1 -10 9 -10 8 0 18 5 21 10 3 6 -1 10 -9 10 -8 0
-18 -4 -21 -10z"/>
<path d="M1398 1417 c-64 -18 -95 -41 -126 -92 -15 -24 -35 -46 -44 -48 -24
-7 -23 -23 2 -30 11 -3 20 -13 20 -22 0 -9 4 -14 9 -11 5 3 14 -1 21 -9 6 -7
18 -11 26 -8 8 3 14 2 14 -1 0 -10 -24 -49 -45 -74 -19 -23 -19 -23 0 -16 20
7 20 7 1 -14 -11 -12 -16 -25 -13 -29 7 -6 -37 -71 -56 -84 -6 -4 -7 -17 -4
-29 3 -11 -2 -34 -11 -51 -13 -23 -14 -31 -5 -37 9 -6 7 -13 -8 -26 -11 -9
-18 -24 -15 -31 3 -8 1 -14 -5 -12 -6 1 -18 -9 -27 -23 -16 -23 -16 -24 3 -17
18 7 18 6 -3 -15 -34 -35 -72 -82 -72 -90 0 -5 6 -8 14 -8 19 0 186 68 216 88
78 52 133 77 138 62 3 -7 9 -7 19 2 14 11 15 9 11 -20 -2 -18 -1 -35 4 -38 4
-3 8 1 9 8 2 26 28 -86 35 -151 7 -56 9 -61 15 -36 4 17 7 58 8 92 1 74 17
125 31 103 7 -11 10 -7 10 16 0 29 2 31 36 29 19 0 38 -5 42 -10 10 -14 72
-48 72 -39 0 4 8 1 18 -7 20 -18 105 -59 119 -59 6 0 16 -7 23 -15 7 -8 16
-13 20 -10 5 3 10 2 12 -2 1 -5 26 -19 53 -32 28 -12 58 -27 68 -32 9 -5 17
-7 17 -4 0 6 -36 49 -79 95 -58 61 -111 136 -111 157 0 12 -7 23 -15 27 -9 3
-12 12 -8 22 4 12 3 15 -5 10 -8 -4 -10 -2 -6 7 3 8 -7 28 -21 45 -15 18 -24
36 -21 41 4 5 -2 14 -11 20 -10 5 -15 13 -11 16 4 4 15 0 24 -9 9 -9 19 -15
22 -12 9 9 -27 54 -48 61 -19 6 -20 8 -5 19 20 14 11 42 -16 49 -13 3 -17 10
-13 21 4 9 3 16 -2 15 -5 -1 -16 -1 -24 0 -13 1 -13 2 0 11 10 6 11 10 3 10
-7 0 -13 4 -13 10 0 5 3 9 8 9 24 -4 52 2 47 10 -8 13 27 31 62 31 l28 0 -30
16 c-16 8 -48 37 -70 65 -55 67 -109 92 -210 96 -45 2 -100 -3 -127 -10z m-58
-82 c-13 -14 -26 -23 -28 -20 -7 7 29 45 41 45 6 0 0 -11 -13 -25z m-102 -375
c-7 -11 -16 -20 -21 -20 -4 0 -3 9 3 20 6 11 15 20 20 20 6 0 5 -9 -2 -20z"/>
<path d="M2270 1315 c0 -2 9 -9 20 -15 16 -9 18 -8 14 5 -5 13 -34 22 -34 10z"/>
<path d="M1235 1091 c-3 -5 -2 -12 3 -15 5 -3 9 1 9 9 0 17 -3 19 -12 6z"/>
<path d="M1790 982 c0 -4 9 -13 20 -20 11 -7 20 -9 20 -4 0 4 -9 13 -20 20
-11 7 -20 9 -20 4z"/>
<path d="M2100 540 c0 -5 5 -12 10 -15 6 -3 10 -16 10 -28 0 -20 1 -20 16 -5
9 9 14 23 11 31 -6 16 -47 30 -47 17z"/>
</g>
</svg>
